<svg fill="none" height="38" viewBox="0 0 1000 295" width="130" xmlns="http://www.w3.org/2000/svg"><path d="m820.28 182.338c0-44.583 28.324-75.938 68.612-75.938s69.064 31.337 69.064 75.938-28.769 74.162-69.064 74.162c-40.294 0-68.612-30.912-68.612-74.162zm-42.056 0c0 65.782 46.038 112.141 110.662 112.141s111.114-46.359 111.114-112.141-46.038-113.8981-111.114-113.8981-110.662 47.2461-110.662 113.8981zm-214.703-111.2527 86.771 220.7357h40.733l86.766-220.7357h-43.825l-62.862 170.4127h-.89l-62.862-170.4127zm-168.665 103.2977c2.652-40.623 29.659-67.983 66.405-67.983 31.867 0 55.776 20.312 59.319 50.779h-73.491c-26.116 0-40.288 3.09-50.898 17.223h-1.335v-.012zm-42.051 6.623c0 65.782 46.484 113.454 110.663 113.454 43.386 0 81.448-22.069 97.827-56.958l-35.41-17.667c-12.391 22.957-36.3 36.647-62.417 36.647-31.44 0-59.764-23.845-59.764-46.803 0-11.913 7.969-17.222 19.476-17.222h140.322v-11.913c0-66.227-42.495-112.1411-103.577-112.1411-61.081 0-107.126 47.2461-107.126 112.5851m-120.4 110.808h39.843v-135.511c0-29.136 18.14-49.891 43.385-49.891 10.629 0 21.684 3.533 27.008 8.38 3.988-10.6 10.183-21.1817 19.476-31.7816-10.629-8.824-28.769-14.5771-46.484-14.5771-48.69 0-83.228 36.2027-83.228 87.8517v135.542zm-192.556-146.098v-107.7382h65.515c22.128 0 36.745 12.8013 36.745 32.2252 0 22.0692-19.031 38.848-57.9839 51.649-26.562 8.38-38.5075 15.447-42.9406 23.845l-1.3355.013zm0 108.163v-45.026c0-19.868 16.8238-39.292 40.2881-46.803 20.8119-7.066 38.0619-14.133 52.6789-21.625 19.476 11.488 31.422 31.337 31.422 52.093 0 35.314-33.648 61.361-79.2411 61.361zm-39.843 37.96h88.5337c67.2953 0 117.7483-41.937 117.7483-97.564 0-30.467-15.488-57.827-42.941-75.494 14.172-14.133 20.812-30.4675 20.812-50.3354 0-41.0492-29.66-68.4276-74.362-68.4276h-109.791z" fill="#0b996e"/></svg>