<svg height="36" viewBox="0 0 28 36" xmlns="http://www.w3.org/2000/svg"><path d="m37.3043962 27.8044164c.0081938.1392519.0081938.2785038.0081938.4164038 0 8.2672375-6.8281475 13.7791798-13.656295 13.7791798s-13.656295-5.5119423-13.656295-13.7791798c0-.1379.0081938-.2812078.0081938-.4164038h4.1078135c-.0136563.1460117-.0136563.2812078-.0136563.4164038 0 6.0054078 4.9626976 9.7232988 9.5594065 9.7232988s9.5594065-3.717891 9.5594065-9.7232988c0-.136548-.0040969-.274448-.0136563-.4164038zm-13.6481012-16.6534475-2.926544 3.9071654h-5.1634452c2.4212356-3.2499164 5.1284765-6.28113817 8.0899892-9.0581343 2.9615127 2.77699613 5.6687536 5.8082179 8.0899891 9.0581343h-5.1634451zm0 13.0707526c-1.5084327 0-2.731259-1.2105865-2.731259-2.7039207 0-1.4933341 1.2228263-2.7039207 2.731259-2.7039207s2.731259 1.2105866 2.731259 2.7039207c0 1.4933342-1.2228263 2.7039207-2.731259 2.7039207zm8.193777 0c-1.5084327 0-2.731259-1.2105865-2.731259-2.7039207 0-1.4933341 1.2228263-2.7039207 2.731259-2.7039207s2.731259 1.2105866 2.731259 2.7039207c0 1.4933342-1.2228263 2.7039207-2.731259 2.7039207zm-16.387554 0c-1.5084327 0-2.731259-1.2105865-2.731259-2.7039207 0-1.4933341 1.2228263-2.7039207 2.731259-2.7039207s2.731259 1.2105866 2.731259 2.7039207c0 1.4933342-1.2228263 2.7039207-2.731259 2.7039207z" transform="translate(-10 -6)"/></svg>