<svg height="488.212" preserveAspectRatio="none" viewBox="61.0904 5.5368 355.9882 488.2116" width="355.988" xmlns="http://www.w3.org/2000/svg" xmlns:xlink="http://www.w3.org/1999/xlink"><filter id="a"><feFlood flood-opacity="0" result="BackgroundImageFix"/><feBlend in="SourceGraphic" in2="BackgroundImageFix" mode="normal" result="shape"/><feGaussianBlur result="effect1_foregroundBlur" stdDeviation=".4"/></filter><filter id="b"><feFlood flood-opacity="0" result="BackgroundImageFix"/><feBlend in="SourceGraphic" in2="BackgroundImageFix" mode="normal" result="shape"/><feGaussianBlur result="effect1_foregroundBlur" stdDeviation="4"/></filter><linearGradient id="c" gradientUnits="userSpaceOnUse" x1="38.0451" x2="56.6585" y1="-1" y2="47.7233"><stop offset="0" stop-color="#0b53ce"/><stop offset="1" stop-color="#7252aa"/></linearGradient><linearGradient id="d" gradientUnits="userSpaceOnUse" x1="64.1377" x2="64.1377" y1="93.4922" y2="35.4151"><stop offset="0" stop-color="#2266e3"/><stop offset="1" stop-color="#ae7fe2"/></linearGradient><linearGradient id="e" gradientUnits="userSpaceOnUse" x1="82" x2="62.0764" y1="56.7858" y2="56.7858"><stop offset="0" stop-color="#94b9ff"/><stop offset=".2878" stop-color="#94b9ff" stop-opacity=".523646"/><stop offset="1" stop-color="#538fff" stop-opacity="0"/></linearGradient><clipPath id="f"><path d="m0 0h96v96h-96z"/></clipPath><mask id="g" height="96" maskUnits="userSpaceOnUse" width="70" x="12" y="0"><path d="m82.0001 31.047c0-4.2261-2.6567-7.996-6.6367-9.4174l-58.0181-20.72057c-2.6049-.9303396-5.3453 1.00085-5.3453 3.76697v31.5051c0 1.6904 1.0627 3.1984 2.6547 3.767l26 9.2857c2.6049.9303 5.3453-1.0009 5.3453-3.767v-18.09c0-1.3974 1.3966-2.3641 2.7044-1.8719l6.8178 2.5658c3.8973 1.4667 6.4778 5.195 6.4778 9.3592v7.8777l-29.3728 10.7323c-1.5777.5765-2.6272 2.0773-2.6272 3.7571v31.4827c0 2.7785 2.7631 4.7106 5.3728 3.757l40.0592-14.6371c3.9443-1.4412 6.568-5.1932 6.568-9.3926z" fill="#fff"/></mask><g clip-path="url(#f)" transform="matrix(5.08553791 0 0 5.08553791 .063967 5.536848)"><g mask="url(#g)"><path d="m12-1 70.0001 24.9998v34.3247c0 2.766-2.74 4.6972-5.345 3.7672l-14.6551-5.2324v-19.4352c0-4.1661-2.5829-7.8958-6.4828-9.3611l-6.8138-2.5601c-1.3077-.4913-2.7034.4753-2.7034 1.8722v23.7677l-34-12.1428z" fill="url(#c)"/><g filter="url(#a)"><path d="m82 31.3998c0 4.1994-2.6237 7.9588-6.5681 9.4l-45.4319 16.6001v40l52-19.0001z" fill-opacity=".24"/></g><g filter="url(#b)"><path d="m82 32.9998c0 4.1994-2.6237 7.9587-6.5681 9.3999l-45.4319 16.6002v40l52-19.0001z" fill-opacity=".32"/></g><path d="m82 30.9998c0 4.1994-2.6237 7.9587-6.5681 9.3999l-45.4319 16.6002v40l52-19.0001z" fill="url(#d)"/><path d="m82 30.9998c0 4.1994-2.6237 7.9587-6.5681 9.3999l-45.4319 16.6002v40l52-19.0001z" fill="url(#e)" opacity=".5"/><path d="m62.0013 45.3202-16.0091 5.8566.0001 23.4581c0 1.3974 1.3967 2.364 2.7045 1.8717l6.8273-2.5698c3.897-1.4669 6.4772-5.195 6.4772-9.3589z" fill="#b0adff" opacity=".5"/></g></g></svg>