<svg enable-background="new 0 0 400 400" viewBox="0 0 400 400" xmlns="http://www.w3.org/2000/svg"><g fill="#fff"><path d="m51.46 70.71c0-2.5 2.03-4.52 4.52-4.52h36.42c1.98 0 3.58 1.6 3.58 3.58v2.18c0 1.98-1.6 3.58-3.58 3.58h-30.3v24h24c1.98 0 3.58 1.6 3.59 3.58v2.17c0 1.98-1.61 3.58-3.59 3.58h-24v24.65h32.15c1.98 0 3.58 1.6 3.58 3.58v2.17c0 1.98-1.6 3.58-3.58 3.58h-38.26c-2.5 0-4.52-2.03-4.52-4.52v-67.61z"/><path d="m119.66 139.57c0 2.39-1.2 3.58-3.58 3.58h-3.37c-2.39 0-3.58-1.2-3.58-3.58v-75.08c0-2.39 1.19-3.58 3.58-3.58h3.37c2.39 0 3.58 1.19 3.58 3.58z"/><path d="m179.57 87.9h-2.6c-2.39 0-3.59 1.01-3.59 3.04v2.73c.01.72.08 1.45.22 2.16h-.22c-.81-1.76-2-3.31-3.47-4.56-1.58-1.33-3.36-2.41-5.27-3.2-2.68-1.06-5.54-1.56-8.42-1.47-14.65 0-24.54 10.43-24.54 29.25 0 17.31 9.75 28.61 23.63 28.61 7.43 0 15.53-3.09 18.07-9.34h.22c-.11.74-.19 1.48-.22 2.23v2.76c0 2.02 1.2 3.04 3.59 3.04h2.6c2.39 0 3.58-1.2 3.58-3.58v-48.08c.01-2.39-1.19-3.59-3.58-3.59m-22.04 47.44c-9.25 0-15.1-8.69-15.1-19.92 0-10.54 4.23-19.7 15.58-19.7 8.7 0 14.83 7.72 14.83 19.7-0 11.89-6.19 19.92-15.31 19.92z"/><path d="m196.3 138.18c-.84-.42-1.41-1.24-1.52-2.17-.05-.96.22-1.92.76-2.71l1.09-1.52c.5-.79 1.31-1.34 2.23-1.52.98-.02 1.94.25 2.77.76 1.68 1.04 3.42 1.99 5.21 2.82 2.59 1.16 5.41 1.71 8.25 1.63 2.39.11 4.75-.56 6.73-1.9 1.72-1.23 2.7-3.26 2.6-5.37.05-1.71-.74-3.33-2.12-4.34-1.63-1.21-3.4-2.21-5.27-2.99-2.1-.9-4.36-1.77-6.79-2.61-2.38-.81-4.66-1.9-6.79-3.26-2.06-1.3-3.84-2.97-5.27-4.94-1.5-2.24-2.24-4.91-2.12-7.6-.05-2.4.49-4.76 1.57-6.9 1.02-1.96 2.49-3.65 4.29-4.94 1.93-1.36 4.08-2.37 6.35-2.99 2.49-.7 5.07-1.04 7.66-1.03 3.23-.1 6.46.42 9.5 1.52 1.97.76 3.87 1.67 5.7 2.71.88.35 1.54 1.1 1.79 2.01.15.97-.06 1.95-.6 2.77l-.98 1.63c-1.01 1.81-2.61 2.21-4.78 1.19-1.46-.79-2.96-1.48-4.51-2.06-2.14-.77-4.4-1.14-6.68-1.09-2.31-.08-4.6.53-6.57 1.74-1.76 1.13-2.78 3.12-2.66 5.21-.04 1.72.74 3.36 2.12 4.4 1.61 1.24 3.38 2.24 5.27 2.99 2.1.87 4.36 1.74 6.79 2.61 2.36.84 4.64 1.91 6.79 3.2 2.08 1.25 3.87 2.91 5.27 4.89 1.49 2.27 2.23 4.95 2.12 7.66.04 4.5-1.95 8.77-5.43 11.62-1.85 1.51-3.97 2.65-6.24 3.37-2.62.83-5.35 1.23-8.09 1.19-2.13.02-4.26-.18-6.35-.6-1.76-.35-3.49-.86-5.16-1.52-1.4-.56-2.76-1.21-4.07-1.95-.99-.57-1.95-1.2-2.86-1.91"/><path d="m287.14 76.93c-2.39 0-3.58-1.2-3.58-3.58v-3.58c0-2.39 1.2-3.58 3.58-3.58h3.69c2.39 0 3.58 1.19 3.58 3.58v3.58c0 2.39-1.19 3.59-3.58 3.58zm-3.48 14.56c0-2.39 1.19-3.58 3.58-3.58h3.37c2.39 0 3.58 1.2 3.58 3.58v48.09c0 2.39-1.2 3.58-3.58 3.58h-3.37c-2.39 0-3.58-1.2-3.58-3.58z"/><path d="m348.18 137.16c.69 1.41.14 3.11-1.24 3.86-4.11 2.13-8.67 3.21-13.3 3.14-19.55 0-27.81-14.7-27.81-28.78 0-13.81 8.76-28.78 27.36-28.78 4.39-.07 8.74.93 12.66 2.92 1.42.74 1.99 2.48 1.27 3.91l-1.33 2.68c-.68 1.38-2.32 1.99-3.74 1.39-2.47-1.11-5.15-1.71-7.86-1.76-11.4 0-17.6 6.16-17.6 19.55 0 11.43 5.99 19.77 17.82 19.77 3.02-.02 6.01-.68 8.76-1.92 1.43-.61 3.08.01 3.75 1.41.39.84.85 1.77 1.26 2.61"/><path d="m261.17 139.57c0 1.98-1.6 3.58-3.58 3.58h-3.37c-1.98 0-3.59-1.6-3.59-3.58v-42.55h-5.69c-2.32 0-3.48-1.19-3.48-3.58v-1.98c0-1.67 1.35-3.02 3.02-3.02h6.36v-12.05c0-1.98 1.6-3.58 3.58-3.58h3.15c1.98 0 3.58 1.6 3.58 3.58v12.06h10.12c1.67 0 3.02 1.35 3.02 3.02v1.98c0 2.39-1.16 3.59-3.48 3.58h-9.67z"/><path d="m72.36 265.34c0-2.5 2.03-4.52 4.52-4.52h36.42c1.98 0 3.58 1.6 3.58 3.58v2.17c0 1.98-1.6 3.58-3.58 3.58h-30.3v24h24c1.98 0 3.58 1.6 3.58 3.58v2.17c0 1.98-1.6 3.58-3.58 3.58h-24v24.65h32.14c1.98 0 3.58 1.6 3.59 3.58v2.17c0 1.98-1.61 3.58-3.59 3.58h-38.25c-2.5 0-4.53-2.03-4.53-4.53z"/><path d="m129.81 286.12c0-2.39 1.19-3.58 3.58-3.58h3.04c2.39 0 3.59 1.19 3.58 3.58v4.88c0 .73-.07 1.46-.22 2.17-.08.32-.11.65-.11.98h.22c.72-1.71 1.69-3.3 2.88-4.73 1.29-1.57 2.78-2.96 4.45-4.12 1.72-1.2 3.58-2.19 5.54-2.93 1.99-.76 4.11-1.15 6.24-1.14 9.05 0 14.55 4.16 16.51 12.49h.22c.79-1.69 1.81-3.26 3.04-4.67 1.31-1.52 2.8-2.87 4.45-4.02 1.71-1.18 3.57-2.11 5.54-2.77 2.07-.69 4.23-1.04 6.41-1.03 6.3 0 10.9 1.76 13.79 5.27 2.9 3.51 4.34 8.78 4.34 15.8v31.9c0 2.39-1.2 3.58-3.58 3.58h-3.37c-2.39 0-3.59-1.19-3.58-3.58v-29.62c.01-1.82-.12-3.63-.38-5.43-.21-1.52-.68-2.99-1.41-4.34-.69-1.23-1.7-2.24-2.93-2.93-1.52-.78-3.23-1.16-4.94-1.09-2.4-.04-4.77.58-6.84 1.79-2.04 1.21-3.8 2.84-5.16 4.78-1.44 2.06-2.53 4.36-3.2 6.79-.72 2.51-1.08 5.1-1.09 7.71v22.35c0 2.39-1.16 3.58-3.47 3.58h-3.48c-2.32 0-3.48-1.2-3.48-3.58v-29.62c0-1.74-.1-3.48-.33-5.21-.18-1.53-.62-3.02-1.3-4.4-.65-1.27-1.65-2.32-2.88-3.04-1.55-.83-3.29-1.22-5.05-1.14-2.46-.04-4.88.6-7 1.84-2.06 1.23-3.83 2.87-5.21 4.83-1.44 2.06-2.53 4.36-3.2 6.79-.71 2.47-1.08 5.03-1.08 7.6v22.35c0 2.39-1.2 3.58-3.59 3.58h-3.38c-2.39 0-3.58-1.19-3.58-3.58v-48.09z"/><path d="m294.77 271.56c-2.39 0-3.58-1.2-3.58-3.58v-3.58c0-2.39 1.19-3.58 3.58-3.58h3.69c2.39 0 3.58 1.2 3.58 3.58v3.58c0 2.39-1.19 3.58-3.58 3.58zm-3.47 14.56c0-2.39 1.19-3.58 3.58-3.58h3.37c2.39 0 3.58 1.19 3.58 3.58v48.08c0 2.39-1.19 3.58-3.58 3.58h-3.37c-2.39 0-3.58-1.2-3.58-3.58z"/><path d="m327.57 334.2c0 2.39-1.2 3.58-3.59 3.58h-3.36c-2.39 0-3.58-1.2-3.58-3.58v-75.08c0-2.39 1.19-3.59 3.58-3.59h3.37c2.39 0 3.58 1.2 3.58 3.59z"/><path d="m272.4 282.53h-2.61c-2.39 0-3.58 1.01-3.58 3.04v2.73c.01.72.08 1.45.22 2.16h-.21c-.81-1.76-2-3.31-3.47-4.56-1.58-1.33-3.36-2.41-5.27-3.2-2.67-1.06-5.54-1.56-8.42-1.47-14.65 0-24.54 10.43-24.54 29.25 0 17.31 9.75 28.62 23.63 28.62 7.44 0 15.53-3.09 18.07-9.34h.22c-.11.74-.19 1.48-.22 2.23v2.76c0 2.02 1.2 3.04 3.58 3.04h2.61c2.39 0 3.58-1.2 3.58-3.58v-48.09c0-2.4-1.2-3.59-3.59-3.59m-22.04 47.44c-9.25 0-15.1-8.69-15.1-19.93 0-10.54 4.23-19.69 15.58-19.69 8.7 0 14.83 7.72 14.83 19.7 0 11.89-6.19 19.92-15.31 19.92"/></g><path d="m168.96 102.43c-3.7-4.81-9.15-7.97-15.17-8.79-.92-.14-1.86-.22-2.79-.22h-8.32c-1.42-.01-2.58 1.14-2.59 2.56v.01 4.2c0 1.42 1.16 2.57 2.58 2.57h.01 6.86c.5 0 1 .03 1.49.07.44.02.87.09 1.3.19 3.42.67 6.44 2.64 8.42 5.51 1.92 2.81 2.74 6.22 2.3 9.6-.44 3.4-2.14 6.52-4.76 8.72-1.33 1.12-2.87 1.95-4.54 2.44-1.89.42-3.83.6-5.77.56h-62.27c-2.15-.03-4.27-.5-6.23-1.37-3.07-1.6-5.4-4.33-6.5-7.61-1.1-3.21-.99-6.72.3-9.86 1.99-4.98 6.81-8.25 12.18-8.25h28.74l-8.47 9.34c-.78.86-.71 2.18.14 2.96l.07.06 2.76 2.29c.93.77 2.31.64 3.09-.29l13.55-16.31c1.32-1.58 1.32-3.87 0-5.45l-13.55-16.31c-.77-.93-2.15-1.06-3.09-.29l-2.77 2.3c-.89.74-1.01 2.06-.27 2.95l.06.06 8.48 9.34h-28.74c-2.95-.02-5.89.48-8.67 1.47-5.71 2.11-10.36 6.36-12.99 11.85-2.59 5.59-2.8 11.98-.59 17.73 2.24 5.67 6.61 10.22 12.19 12.68 2.69 1.31 5.63 2 8.62 2.04h63.93c2.77.04 5.54-.2 8.27-.7 2.9-.75 5.63-2.04 8.06-3.8 10.16-7.36 12.42-21.56 5.06-31.72-.12-.18-.25-.35-.38-.53z" fill="#5457ff" transform="translate(82.245 92.622)"/></svg>