<svg viewBox="0 0 33 44" xmlns="http://www.w3.org/2000/svg"><path d="m32.3115 28.0458c-1.1139-.5833-2.3392.0943-2.8276.5918-.2913.3002-.6512.5317-1.0454.6776-.3941.1458-.814.2058-1.2338.1715-.4199-.0343-.8226-.163-1.191-.3688-.3685-.2059-.6769-.4975-.9254-.8406-.06-.0857-.1114-.1715-.1628-.2658 3.7701-2.8476 6.1949-7.3763 6.1864-12.471-.0086-8.61131-7.0518-15.6015589-15.6545-15.54151993-8.55127.06003903-15.4574 7.01597993-15.4574 15.58441993 0 5.575 2.93039 10.4725 7.32599 13.2257-.01714.1372-.04285.2745-.07712.4117-.10282.4117-.29989.7891-.56551 1.115-.26562.326-.59979.5833-.98537.7634-.09425.0429-.18851.0857-.29133.1201-.00857 0-.00856 0-.01713.0085-.03428.0086-.05998.0172-.09426.0258-.39414.1115-.81399.1458-1.22528.0857-.68547-.1029-2.54481-.1715-3.04178 1.0979-.454127 1.1665.49697 2.0585 1.48233 2.3672.17994.0601.35988.103.54838.1458.13709.0429.27419.0772.41128.0944.33417.0515.67691.0772 1.01964.0772.63407 0 1.25956-.0944 1.85935-.2745.00857 0 .00857 0 .01713-.0086.00857 0 .00857 0 .01714-.0085.08569-.0258.17994-.0515.26562-.0858.82257-.283 1.57659-.729 2.22779-1.3037.14566-.1287.27419-.2659.40271-.4203.09425-.1029.17994-.1972.27419-.3087.04284-.0515.07712-.103.11996-.1544.00857-.0086.00857-.0172.01714-.0258.19707-.2573.37703-.5232.53123-.8062 0 0 0-.0086.0086-.0086.06-.1115.2313-.0429.1885.0772-.0086.0172-.0086.0257-.0172.0429-.3941 1.2179-.96819 2.3672-1.71364 3.4136-.60835.8492-1.31096 1.6211-2.09926 2.2987-.84827.7204-1.1653 1.9384-.59122 2.8904.57409.9521 1.8165 1.2608 2.69048.5747 1.25099-.9778 2.34774-2.1357 3.27314-3.4394 1.0453-1.4752 1.8422-3.1134 2.3563-4.8374.0428-.1544.1028-.3688.1542-.5918.0343-.1544.2657-.1287.2657.0257.0085.1973.0085.3945.0085.5832-.0257 1.7154-.4027 3.4051-1.1053 4.9747-.4284.952-.9768 1.844-1.6194 2.6589-.6941.8662-.7626 2.1271-.0172 2.9505.7455.8233 2.0222.892 2.7505.0514 1.0368-1.2008 1.8936-2.5474 2.5534-4.0054.9339-2.0671 1.4309-4.2971 1.4566-6.57 0-.1716 0-.3431 0-.5146 0-.1201.1714-.1459.2056-.0344.0515.1887.1029.3689.1371.4975.2914 1.2694.3856 2.5731.2742 3.8768-.0857 1.0378-.3084 2.0671-.6512 3.0449-.3684 1.0463-.0171 2.2643.9597 2.7875s2.2021.1629 2.6048-.8663c.5826-1.4752.9425-3.0363 1.0796-4.623.12-1.3637.06-2.7275-.1542-4.0655-.06-.3945-.1457-.7805-.2314-1.1665-.0257-.0943.0943-.1715.1714-.1029.3085.2659.6426.4975.9939.7033.8397.4803 1.7737.7719 2.7419.8491.9683.0772 1.9365-.06 2.8447-.3945.9083-.3431 1.7309-.8749 2.4078-1.5696.2399-.2487.4626-.506.6597-.7891.6084-.8148.4199-1.9212-.4969-2.4015zm-22.2522-10.078c-1.06247.1458-2.04784-.5918-2.1935-1.6639-.14567-1.0722.59122-2.0499 1.66227-2.1958 1.06243-.1458 2.04783.5919 2.19353 1.664.1456 1.0635-.5912 2.0499-1.6623 2.1957zm13.8551-1.9298c-1.0625.1458-2.0478-.5918-2.1935-1.664-.1457-1.0635.5912-2.0499 1.6623-2.1957 1.0625-.1458 2.0478.5918 2.1935 1.664.1457 1.0721-.5998 2.0499-1.6623 2.1957z" fill="#6e54d7"/></svg>