<svg clip-rule="evenodd" fill-rule="evenodd" height="150" image-rendering="optimizeQuality" shape-rendering="geometricPrecision" text-rendering="geometricPrecision" viewBox="0 0 11.71 11.71" width="150" xmlns="http://www.w3.org/2000/svg"><path d="m0 0h11.71v11.71h-11.71z" fill="none"/><g fill="#fff" fill-rule="nonzero"><path d="m5.85 3.39c1.49 0 2.86.42 3.86 1.09 1.1.73 1.79 1.78 1.79 2.97s-.69 2.24-1.79 2.98c-1 .67-2.37 1.08-3.86 1.08s-2.86-.41-3.86-1.08c-1.1-.74-1.78-1.79-1.78-2.98s.68-2.24 1.78-2.97c1-.67 2.37-1.09 3.86-1.09m2.91 2.51c-.73-.49-1.76-.79-2.91-.79s-2.17.3-2.9.79c-.63.42-1.02.97-1.02 1.55s.39 1.13 1.02 1.55c.73.49 1.75.79 2.9.79s2.18-.3 2.91-.79c.63-.42 1.02-.97 1.02-1.55s-.39-1.13-1.02-1.55"/><path d="m1.95 7.2c-.55-.38-.99-.83-1.3-1.35.31-.51.75-.97 1.3-1.35.1.49.46.94 1 1.3.02.02.05.04.07.05-.02.02-.05.04-.07.05-.54.36-.9.81-1 1.3"/><path d="m5.85.19c1.49 0 2.86.42 3.86 1.09 1.1.74 1.79 1.79 1.79 2.97 0 1.19-.69 2.24-1.79 2.98-1 .67-2.37 1.08-3.86 1.08s-2.86-.41-3.86-1.08c-1.1-.74-1.78-1.79-1.78-2.98 0-1.18.68-2.23 1.78-2.97 1-.67 2.37-1.09 3.86-1.09m2.91 2.51c-.73-.48-1.76-.78-2.91-.78s-2.17.3-2.9.78c-.63.42-1.02.97-1.02 1.55s.39 1.13 1.02 1.55c.73.49 1.75.79 2.9.79s2.18-.3 2.91-.79c.63-.42 1.02-.97 1.02-1.55s-.39-1.13-1.02-1.55"/></g></svg>