<svg clip-rule="evenodd" fill-rule="evenodd" height="34" image-rendering="optimizeQuality" shape-rendering="geometricPrecision" text-rendering="geometricPrecision" viewBox="0 0 32.23 7.77" width="141" xmlns="http://www.w3.org/2000/svg"><path d="m0 0h32.23v7.77h-32.23z" fill="none"/><g fill="#fff" fill-rule="nonzero"><path d="m4.04 2.29c.97 0 1.86.27 2.51.7.72.48 1.16 1.16 1.16 1.94 0 .77-.44 1.45-1.16 1.93-.65.43-1.54.7-2.51.7s-1.86-.27-2.51-.7c-.71-.48-1.16-1.16-1.16-1.93 0-.78.45-1.46 1.16-1.94.65-.43 1.54-.7 2.51-.7zm1.89 1.63c-.47-.32-1.14-.51-1.89-.51s-1.41.19-1.89.51c-.41.27-.66.63-.66 1.01 0 .37.25.73.66 1 .48.32 1.14.51 1.89.51s1.42-.19 1.89-.51c.41-.27.66-.63.66-1 0-.38-.25-.74-.66-1.01z"/><path d="m1.51 4.76c-.36-.24-.65-.54-.85-.87.2-.34.49-.63.85-.88.06.32.29.61.64.84.02.01.04.03.05.04-.01.01-.03.02-.05.03-.35.23-.58.53-.64.84z"/><path d="m4.04.21c.97 0 1.86.27 2.51.7.72.48 1.16 1.17 1.16 1.94s-.44 1.45-1.16 1.93c-.65.43-1.54.7-2.51.7s-1.86-.27-2.51-.7c-.71-.48-1.16-1.16-1.16-1.93s.45-1.46 1.16-1.94c.65-.43 1.54-.7 2.51-.7zm1.89 1.63c-.47-.32-1.14-.51-1.89-.51s-1.41.19-1.89.51c-.41.27-.66.63-.66 1.01 0 .37.25.73.66 1 .48.32 1.14.52 1.89.52s1.42-.2 1.89-.52c.41-.27.66-.63.66-1 0-.38-.25-.74-.66-1.01z"/><path d="m5.99 2.68c.2.09.39.2.56.31.72.48 1.16 1.16 1.16 1.94 0 .1-.01.21-.03.31l-1.24.19c.1-.16.15-.33.15-.5 0-.38-.25-.74-.66-1.01-.2-.13-.42-.24-.68-.33z"/><path d="m9.86 3.92h-.52v-.92h.52v-.21c0-.25.04-.46.12-.62.07-.17.17-.3.3-.4s.27-.16.43-.2c.15-.04.31-.06.48-.06h2.17v.92h-1.41-.49s-.48-.03-.48.4v.17h1.32v.92h-1.32v2.35h-1.12c0-.78 0-1.57 0-2.35z"/><path d="m15.96 3.51c.08-.13.18-.23.31-.3.13-.08.28-.13.44-.16.16-.04.33-.05.5-.05h.03 1.43v.8h-1.28c-.12 0-.39-.02-.39.15 0 .08.04.13.12.17s.19.08.31.11c.12.04.26.08.4.12.15.04.28.1.41.17.12.08.22.17.3.29.17.25.16.69 0 .94-.08.13-.2.23-.33.31-.14.07-.3.13-.49.16s-.38.05-.58.05h-1.3v-.82h1.19.09c.26-.01.39-.06.39-.16 0-.07-.04-.12-.12-.16s-.19-.07-.31-.11-.26-.08-.4-.12c-.15-.04-.28-.1-.41-.17-.12-.08-.22-.18-.3-.3-.17-.24-.16-.67-.01-.92z"/><path d="m18.88 4.64c0-.3.05-.56.16-.77.11-.2.25-.37.41-.5.7-.54 1.95-.51 2.46.26.13.19.2.4.23.63 0 .07.01.14.01.2v.5c-.71 0-1.42 0-2.13 0 .14.4.67.47 1.03.47h1.1v.84h-1.38c-.71 0-1.41-.26-1.74-.93-.1-.21-.15-.44-.15-.7zm2.13-.63c-.02-.04-.05-.07-.09-.09-.2-.15-.53-.15-.73 0-.04.02-.07.05-.09.09-.06.07-.1.17-.1.3h.04 1.03.04c0-.13-.04-.23-.1-.3z"/><path d="m15.51 3v1.94c0 1.8-3.27 1.74-3.27 0v-1.94h1.12v1.92c0 .7 1.02.7 1.02.01v-1.93z"/><path d="m27.67 1.51-1.06 4.76h-.66l-1.04-3.54h-.1l-1.03 3.54h-.67l-1.06-4.76h.82l.68 3.39.97-3.39h.71l.96 3.39.66-3.39z"/><path d="m29.97 1.51c.6 0 1.07.13 1.4.4.32.26.49.64.49 1.11 0 .49-.17.87-.51 1.15s-.8.42-1.39.42h-1.23v1.68h-.74v-4.76zm-.05 2.46c.38 0 .67-.08.87-.24.19-.16.29-.39.29-.69s-.1-.53-.29-.68c-.2-.16-.49-.24-.87-.24h-1.19v1.85z"/></g></svg>