<svg fill="none" height="259" viewBox="0 0 574 259" width="574" xmlns="http://www.w3.org/2000/svg" xmlns:xlink="http://www.w3.org/1999/xlink"><clipPath id="a"><path d="m0 0h573.457v259h-573.457z"/></clipPath><clipPath id="b"><path d="m.015564 0h573.685v259h-573.685z"/></clipPath><g clip-path="url(#a)"><g clip-path="url(#b)"><path d="m157.146 107.772c70.593 13.663 92.504 79.014 93.082 144.743.013 1.479-1.181 2.685-2.66 2.685h-88.863c-1.466 0-2.66-1.183-2.668-2.652-.267-50.994-8.529-95.995-59.057-97.938-1.5074-.057-2.7635 1.15-2.7635 2.66v95.271c0 1.468-1.1914 2.659-2.66 2.659h-88.88101c-1.46853 0-2.659926-1.188-2.659926-2.659v-242.75339c0-1.46853 1.191396-2.65993 2.659926-2.65993h88.88101c1.4686 0 2.66 1.1914 2.66 2.65993v90.93539c0 1.349 1.0929 2.442 2.4423 2.442 1.0697 0 2.0202-.697 2.331-1.722 22.8952-74.9887 65.6542-93.84394 135.0862-94.30755 1.474-.01036 2.681 1.18622 2.681 2.65993v90.70962c0 1.468-1.191 2.66-2.66 2.66h-76.506c-1.284 0-2.326 1.041-2.326 2.326 0 1.113.79 2.072 1.881 2.281zm243.325 56.846v-58.793c0-1.469 1.191-2.66 2.66-2.66h65.405c1.287 0 2.331-1.044 2.331-2.331 0-1.1164-.795-2.0721-1.89-2.2871-51.174-10.1502-74.797-39.6089-75.613-88.7567-.023-1.46076 1.15-2.66252 2.608-2.66252h96.04c1.469 0 2.66 1.1914 2.66 2.65993v41.40379c0 1.4685 1.191 2.6599 2.66 2.6599h55.068c1.469 0 2.66 1.1914 2.66 2.6599v43.9938c0 1.468-1.191 2.66-2.66 2.66h-55.068c-1.469 0-2.66 1.191-2.66 2.66v47.423c0 16.754 10.272 22.279 23.932 22.279 21.406 0 42.522-9.645 50.991-14.017 1.772-.914 3.878.373 3.878 2.364v73.826c0 1.971-1.088 3.784-2.834 4.703-8.36 4.398-34.209 16.592-63.779 16.592-60.813.005-106.389-24.786-106.389-94.377zm-125.019 87.923v-146.721c0-1.469 1.191-2.66 2.66-2.66h88.881c1.468 0 2.66 1.191 2.66 2.66v146.721c0 1.468-1.192 2.659-2.66 2.659h-88.881c-1.469 0-2.66-1.188-2.66-2.659zm-5.033-207.3222c0 24.9728 17.636 45.2188 51.518 45.2188s51.518-20.246 51.518-45.2188-17.638-45.2188-51.518-45.2188c-33.882 0-51.518 20.246-51.518 45.2188z" fill="#1e1e1e"/></g></g></svg>