<svg fill="none" viewBox="0 0 28 26" xmlns="http://www.w3.org/2000/svg"><g fill="#1e2423"><path d="m105.299 4.84769c1.085 0 1.966-.88018 1.966-1.96597 0-1.08578-.881-1.965987-1.966-1.965987-1.086 0-1.966.880207-1.966 1.965987 0 1.08579.88 1.96597 1.966 1.96597z"/><path d="m19.7111 1.24912h-15.58061c-.54212-.00084-1.07909.1052-1.58018.31208-.5011.20688-.95649.51053-1.34013.89357-.383633.38304-.68799.83796-.895645 1.33873-.207655.50078-.31453565 1.03758-.314535 1.57971v15.58059c-.00000065.5421.10688 1.0789.314535 1.5797s.512012.9557.895645 1.3387c.38364.3831.83903.6867 1.34013.8936.50109.2069 1.03806.3129 1.58018.3121h7.09551v-3.4133c0-3.2916-.4099-5.8147-2.85615-6.5447v-2.696c3.97675.3586 5.94915 3.3171 5.94915 8.1777v4.4827h5.3921c1.0938 0 2.1427-.4345 2.9161-1.2079.7735-.7735 1.208-1.8224 1.208-2.9162v-15.58699c0-1.09378-.4345-2.14276-1.208-2.91618-.7734-.77341-1.8223-1.20791-2.9161-1.20791zm-7.6847 8.60679c-.4524.00126-.895-.13173-1.2718-.38217s-.6709-.60705-.84487-1.02468c-.17402-.41763-.2202-.8775-.13272-1.3214.08749-.4439.30469-.85186.62419-1.17223s.7268-.53873 1.1705-.62747c.4436-.08873.9036-.04384 1.3217.12901.4182.17284.7756.46587 1.0271.84197s.3857.81835.3857 1.27078c0 .60523-.24 1.18576-.6673 1.61432-.4274.42855-1.0072.67017-1.6125.67187z"/></g></svg>